<?xml version="1.0" encoding="UTF-8"?>
<svg id="cherry" xmlns="http://www.w3.org/2000/svg" viewBox="0 0 327.27 582.9">
  <defs>
    <style>
      .cls-1 {
        fill: #e34e9c;
      }

      .cls-1, .cls-2, .cls-3, .cls-4, .cls-5, .cls-6 {
        stroke: #231f20;
        stroke-miterlimit: 10;
      }

      .cls-1, .cls-4, .cls-5 {
        stroke-linecap: round;
        stroke-width: 5px;
      }

      .cls-2, .cls-3, .cls-6 {
        stroke-width: 4px;
      }

      .cls-2, .cls-5 {
        fill: none;
      }

      .cls-3 {
        fill: #93c841;
      }

      .cls-4 {
        fill: #c3529e;
      }

      .cls-7 {
        fill: #cf68a9;
      }

      .cls-6 {
        fill: #92c840;
      }
    </style>
  </defs>
  <path id="cherrystick" class="cls-5" d="M62.09,370.31c1.99-48.27-4.04-96.48-6.04-144.75-2-48.27.25-97.79,17.94-142.75,10.96,17.28,28.39,42.04,53.84,68.09,31.97,32.73,50.75,41.03,74.16,65.11,19.95,20.53,44.21,53.51,60.11,107.07"/>
  <g id="rightcherry">
    <circle class="cls-4" cx="246.64" cy="399.32" r="78.14"/>
    <circle class="cls-7" cx="271.36" cy="376.49" r="36.41"/>
  </g>
  <g id="leftcherry">
    <circle class="cls-1" cx="80.64" cy="448.32" r="78.14"/>
  </g>
  <g id="Layer_2" data-name="Layer 2">
    <path class="cls-3" d="M77.23,86.42c-5.11-11.08-7.81-23.25-7.86-35.45-.02-4.68.32-9.5-1.33-13.88-2.84-7.53-10.77-11.8-18.4-14.37s-15.85-4.27-22.1-9.34c2.88,3.58,5.79,7.22,7.52,11.47s2.15,9.27.03,13.34c-2.49,4.76-5.05,10.05-3.82,15.28,1.29,5.48,6.33,9.13,11.01,12.27,10.3,6.92,20.78,13.93,32.63,17.61.9.28,2.02.87,1.83,1.79s-1.81-.47.49,1.27Z"/>
    <path class="cls-6" d="M73.81,82.93c-2.07-11.96,2.9-24.06,9.41-34.31,1.79-2.83,2.24-1.98,14.16-14.27,6.81-7.03,8.09-8.58,11.28-10.19,5.57-2.8,9.65-2.06,18.98-2.47,5.14-.23,12.7-.85,21.98-2.67-3.36,4.94-5.44,10.75-5.98,16.7-.35,3.88-.07,7.85-.96,11.64-.81,3.43-2.54,6.55-4.25,9.63-4.31,7.74-11.72,13.68-20.2,16.21-14.17,4.22-31.36-.45-44.41,9.74Z"/>
    <path class="cls-2" d="M60.41,69.86c-1.96-7.96-3.92-15.92-5.87-23.87-.75-3.06-1.54-6.2-3.38-8.75s-5.01-4.42-8.09-3.78"/>
    <path class="cls-2" d="M38.69,46.27c3.59-.34,7.27,2,8.49,5.4"/>
    <path class="cls-2" d="M62.91,52.52c-3.65-3.39-4.14-9.63-1.08-13.55"/>
    <path class="cls-2" d="M79.49,73.67c-.38-4.28,2.76-8,5.84-10.99,13.7-13.26,30.61-23.18,48.88-28.66"/>
    <path class="cls-2" d="M92.11,69.22c3.99-4.49,10.02-7.08,16.02-6.87"/>
    <path class="cls-2" d="M114.76,52.12c5.24-2.53,11.81-2.04,16.61,1.24"/>
    <path class="cls-2" d="M106.5,37.22c3.21-4.08,8.77-6.15,13.86-5.16"/>
  </g>
</svg>