<?xml version="1.0" encoding="UTF-8"?>
<svg id="orange" xmlns="http://www.w3.org/2000/svg" viewBox="0 0 433.5 522.42">
  <defs>
    <style>
    
      .cls-1 {
        fill: #f89b32;
      }

      .cls-2 {
        fill: #231f20;
      }

      .cls-3 {
        fill: #6cbe45;
        stroke: #231f20;
        stroke-miterlimit: 10;
        stroke-width: 3px;
      }

      .cls-4 {
        fill: #fff;
      }
    </style>
  </defs>
  <path id="leaforange" class="cls-3" d="M209.07,93.1c-23.96-15.78-31.56-56.1-31.56-56.1,1.17-25.13,7.6-35.06,7.6-35.06,33.31,16.36,36.23,33.31,36.23,33.31-7.6,53.18-12.27,57.85-12.27,57.85Z"/>
  <g id="circleorange">
    <path id="blackpath" class="cls-2" d="M216.75,522.42C97.23,522.42,0,425.19,0,305.67S97.23,88.92,216.75,88.92s216.75,97.23,216.75,216.75-97.23,216.75-216.75,216.75Z"/>
    <path id="orangepath" class="cls-1" d="M216.75,512.42c-114,0-206.75-92.75-206.75-206.75S102.75,98.92,216.75,98.92s206.75,92.75,206.75,206.75-92.75,206.75-206.75,206.75Z"/>
    <circle id="whitebackgroundorange" class="cls-4" cx="216.75" cy="305.67" r="194.75"/>
    <path id="triangle5" class="cls-1" d="M396.83,314.44l-76.83,133.07c-2.25,3.9-7.87,3.9-10.12,0l-76.83-133.07c-2.25-3.9.56-8.77,5.06-8.77h153.65c4.5,0,7.31,4.87,5.06,8.77Z"/>
    <path id="triangle4" class="cls-1" d="M233.06,289.03l76.83-133.07c2.25-3.9,7.87-3.9,10.12,0l76.83,133.07c2.25,3.9-.56,8.77-5.06,8.77h-153.65c-4.5,0-7.31-4.87-5.06-8.77Z"/>
    <path id="triangle4-2" data-name="triangle4" class="cls-1" d="M221.81,321.44l76.83,133.07c2.25,3.9-.56,8.77-5.06,8.77h-153.65c-4.5,0-7.31-4.87-5.06-8.77l76.83-133.07c2.25-3.9,7.87-3.9,10.12,0Z"/>
    <path id="triangle3" class="cls-1" d="M199.3,317.29l-76.83,133.07c-2.25,3.9-7.87,3.9-10.12,0l-76.83-133.07c-2.25-3.9.56-8.77,5.06-8.77h153.65c4.5,0,7.31,4.87,5.06,8.77Z"/>
    <path id="triangle2" class="cls-1" d="M194.24,300.81H40.58c-4.5,0-7.31-4.87-5.06-8.77l76.83-133.07c2.25-3.9,7.87-3.9,10.12,0l76.83,133.07c2.25,3.9-.56,8.77-5.06,8.77Z"/>
    <path id="triangle1" class="cls-1" d="M211.69,282.82l-76.83-133.07c-2.25-3.9.56-8.77,5.06-8.77h153.65c4.5,0,7.31,4.87,5.06,8.77l-76.83,133.07c-2.25,3.9-7.87,3.9-10.12,0Z"/>
  </g>
</svg>