<?xml version="1.0" encoding="UTF-8"?>
<svg id="strawberry" xmlns="http://www.w3.org/2000/svg" viewBox="0 0 137.68 181.11">
  <defs>
    <style>
      .cls-1 {
        fill: #faf17c;
      }

      .cls-1, .cls-2, .cls-3, .cls-4, .cls-5 {
        stroke: #231f20;
        stroke-miterlimit: 10;
      }

      .cls-6 {
        fill: #c0db82;
      }

      .cls-2 {
        fill: #231f20;
      }

      .cls-7 {
        fill: #f16461;
      }

      .cls-3 {
        fill: #de1f26;
      }

      .cls-4 {
        fill: none;
      }

      .cls-5 {
        fill: #80c342;
      }
    </style>
  </defs>
  <path id="strawberrystick" class="cls-2" d="M96.05,50.48c-1.93-.29-1.85-47.09,10.54-49.85,4.09-.91,9.59,2.97,10.45,7.06,1.08,5.14-5.62,8.4-11.87,17.6-8.89,13.08-8.14,25.33-9.12,25.18Z"/>
  <g id="strawberryfoundation">
    <path class="cls-3" d="M62.22,36.41C19.82,43.91,1.43,93.31.61,124.9c-.28,10.83-.97,31.15,12.07,41.75,20.49,16.65,60.3-2.45,80.46-17.52,6.76-5.06,54.72-40.92,41.87-77.94-6.23-17.94-25.26-27.14-30.21-29.52-2.82-1.35-21.02-9.08-42.57-5.27Z"/>
    <path class="cls-7" d="M134.44,71.5c-.49-1.37-1.97-5.42-5.19-9.91-2.11-2.95-4.53-5.55-7.02-7.82.46,1.24,1.16,3.12,2.04,5.43,1.24,3.25,1.6,4.07,2.04,5.46.96,3,1.27,5.38,1.51,7.11.67,5,.58,12.37-.54,18.34-3.21,17.13-16.79,33.03-24,41.48-4.04,4.73-9.63,11.2-18.44,18.28-5.92,4.75-15.22,12.1-28.85,17.15-10.71,3.97-20.62,5.51-20.27,5.48,2.3-.2,5.65-.57,9.63-1.37,9.83-1.98,17.01-5.22,23.71-8.29,6.8-3.12,11.6-5.94,13.33-6.97,5.98-3.58,10.16-6.74,11.4-7.69,2.89-2.21,4.81-3.9,7.61-6.35,3.33-2.92,7.75-6.82,12.95-12.4,1.8-1.92,3.83-4.12,6.34-7.26,1.67-2.1,4.19-5.29,6.85-9.66,2.09-3.45,4.93-8.2,7.01-14.98,1.05-3.43,2.18-7.1,2.26-12.16,0-.4.08-7.11-2.34-13.85Z"/>
    <path class="cls-6" d="M120.79,58.78c-1.78,6.03-19.54,7.03-33.11,3.81-2.5-.59-23.11-5.74-26.8-18.67-.69-2.4-.34-3.51-.12-4.03,2.8-6.61,22.56-3.94,32.28-1.69,15.38,3.56,21.51,9.72,24.12,12.87,2.23,2.7,4.35,5.27,3.63,7.72Z"/>
  </g>
  <g id="strawberryseeds">
    <path class="cls-1" d="M9.01,141.11c-2.1,1.49-1.37,7.98-.09,8.45.57.21,1.24-.76,1.84-1.62.22-.32,2.61-3.85,1.5-5.92-.63-1.17-2.24-1.61-3.24-.91Z"/>
    <path class="cls-1" d="M10.32,115.95c-2.1,1.49-1.37,7.98-.09,8.45.57.21,1.24-.76,1.84-1.62.22-.32,2.61-3.85,1.5-5.92-.63-1.17-2.24-1.61-3.24-.91Z"/>
    <path class="cls-1" d="M18.42,88.29c-2.1,1.49-1.37,7.98-.09,8.45.57.21,1.24-.76,1.84-1.62.22-.32,2.61-3.85,1.5-5.92-.63-1.17-2.24-1.61-3.24-.91Z"/>
    <path class="cls-1" d="M28.95,65c-2.1,1.49-1.37,7.98-.09,8.45.57.21,1.24-.76,1.84-1.62.22-.32,2.61-3.85,1.5-5.92-.63-1.17-2.24-1.61-3.24-.91Z"/>
    <path class="cls-1" d="M31.38,107.13c-2.1,1.49-1.37,7.98-.09,8.45.57.21,1.24-.76,1.84-1.62.22-.32,2.61-3.85,1.5-5.92-.63-1.17-2.24-1.61-3.24-.91Z"/>
    <path class="cls-1" d="M27,130.01c-2.1,1.49-1.37,7.98-.09,8.45.57.21,1.24-.76,1.84-1.62.22-.32,2.61-3.85,1.5-5.92-.63-1.17-2.24-1.61-3.24-.91Z"/>
    <path class="cls-1" d="M40.9,85.7c-2.1,1.49-1.37,7.98-.09,8.45.57.21,1.24-.76,1.84-1.62.22-.32,2.61-3.85,1.5-5.92-.63-1.17-2.24-1.61-3.24-.91Z"/>
    <path class="cls-1" d="M50.01,117.05c-2.1,1.49-1.37,7.98-.09,8.45.57.21,1.24-.76,1.84-1.62.22-.32,2.61-3.85,1.5-5.92-.63-1.17-2.24-1.61-3.24-.91Z"/>
    <path class="cls-1" d="M27,156.75c-2.1,1.49-1.37,7.98-.09,8.45.57.21,1.24-.76,1.84-1.62.22-.32,2.61-3.85,1.5-5.92-.63-1.17-2.24-1.61-3.24-.91Z"/>
    <path class="cls-1" d="M43.33,136.7c-2.1,1.49-1.37,7.98-.09,8.45.57.21,1.24-.76,1.84-1.62.22-.32,2.61-3.85,1.5-5.92-.63-1.17-2.24-1.61-3.24-.91Z"/>
    <path class="cls-1" d="M52.44,153.1c-2.1,1.49-1.37,7.98-.09,8.45.57.21,1.24-.76,1.84-1.62.22-.32,2.61-3.85,1.5-5.92-.63-1.17-2.24-1.61-3.24-.91Z"/>
    <path class="cls-1" d="M66.46,130.01c-2.1,1.49-1.37,7.98-.09,8.45.57.21,1.24-.76,1.84-1.62.22-.32,2.61-3.85,1.5-5.92-.63-1.17-2.24-1.61-3.24-.91Z"/>
    <path class="cls-1" d="M54.87,98.3c-2.1,1.49-1.37,7.98-.09,8.45.57.21,1.24-.76,1.84-1.62.22-.32,2.61-3.85,1.5-5.92-.63-1.17-2.24-1.61-3.24-.91Z"/>
    <path class="cls-1" d="M76.26,107.13c-2.1,1.49-1.37,7.98-.09,8.45.57.21,1.24-.76,1.84-1.62.22-.32,2.61-3.85,1.5-5.92-.63-1.17-2.24-1.61-3.24-.91Z"/>
    <path class="cls-1" d="M52.44,63.58c-2.1,1.49-1.37,7.98-.09,8.45.57.21,1.24-.76,1.84-1.62.22-.32,2.61-3.85,1.5-5.92-.63-1.17-2.24-1.61-3.24-.91Z"/>
    <path class="cls-1" d="M66.46,78.16c-2.1,1.49-1.37,7.98-.09,8.45.57.21,1.24-.76,1.84-1.62.22-.32,2.61-3.85,1.5-5.92-.63-1.17-2.24-1.61-3.24-.91Z"/>
    <path class="cls-1" d="M81.78,65c-2.1,1.49-1.37,7.98-.09,8.45.57.21,1.24-.76,1.84-1.62.22-.32,2.61-3.85,1.5-5.92-.63-1.17-2.24-1.61-3.24-.91Z"/>
    <path class="cls-1" d="M90.31,86.98c-2.1,1.49-1.37,7.98-.09,8.45.57.21,1.24-.76,1.84-1.62.22-.32,2.61-3.85,1.5-5.92-.63-1.17-2.24-1.61-3.24-.91Z"/>
    <path class="cls-1" d="M77.81,88.29c-2.1,1.49-1.37,7.98-.09,8.45.57.21,1.24-.76,1.84-1.62.22-.32,2.61-3.85,1.5-5.92-.63-1.17-2.24-1.61-3.24-.91Z"/>
    <path class="cls-1" d="M45.16,49.13c-2.1,1.49-1.37,7.98-.09,8.45.57.21,1.24-.76,1.84-1.62.22-.32,2.61-3.85,1.5-5.92-.63-1.17-2.24-1.61-3.24-.91Z"/>
  </g>
  <g id="strawberryleafs">
    <g id="Layer_4" data-name="Layer 4">
      <path class="cls-5" d="M94.52,43.56c-3.17,2.32-12.37,8.39-22.35,5.95-1.96-.48-7.81-1.92-8.74-5.88-.81-3.42,2.41-7.26,5.16-8.88,6.13-3.59,16.42.03,25.93,8.81Z"/>
      <path class="cls-4" d="M81.43,43.62c-4.76-2.09-10.1-2.83-15.24-2.1"/>
      <path class="cls-4" d="M74.34,44.77c-1.47-.91-3.62-.44-4.57,1"/>
      <path class="cls-4" d="M72.7,39.88c-1.48-.38-2.72-1.61-3.1-3.09"/>
    </g>
    <g id="Layer_3" data-name="Layer 3">
      <path class="cls-5" d="M88.64,38.2c3.93-.08,14.95.23,21.71,7.95,1.33,1.52,5.3,6.05,3.79,9.83-1.3,3.27-6.14,4.57-9.32,4.31-7.08-.57-13.43-9.45-16.18-22.09Z"/>
      <path class="cls-4" d="M95.55,47.42c1.83,3.27,4.8,5.89,8.28,7.3"/>
    </g>
    <g id="Layer_2" data-name="Layer 2">
      <path class="cls-5" d="M93.87,39.61c3.62-1.53,13.97-5.33,23.12-.66,1.8.92,7.16,3.66,7.16,7.73,0,3.52-4.01,6.52-7.06,7.46-6.79,2.09-15.97-3.8-23.22-14.52Z"/>
      <path class="cls-4" d="M103.04,43.76c3.58,4.36,9.98,6.16,15.31,4.31"/>
      <path class="cls-4" d="M110.03,43.26c.85,1.64,2.97,2.51,4.73,1.94"/>
    </g>
    <g id="Layer_5" data-name="Layer 5">
      <path class="cls-5" d="M95.13,40.18c-3.89.54-14.88,1.52-22.49-5.37-1.5-1.35-5.97-5.39-4.91-9.32.91-3.4,5.57-5.25,8.76-5.37,7.1-.26,14.44,7.82,18.65,20.06Z"/>
      <path class="cls-4" d="M82.88,34.65c-1.94-4.27-6.36-7.29-11.03-7.55"/>
    </g>
    <g id="Layer_6" data-name="Layer 6">
      <path class="cls-5" d="M94.85,40.12c-3.45-1.88-12.87-7.62-14.9-17.68-.4-1.98-1.59-7.88,1.59-10.42,2.75-2.19,7.6-.92,10.23.89,5.86,4.01,6.96,14.87,3.08,27.21Z"/>
      <path class="cls-4" d="M86.85,17.22c1.14,1.47,1.69,3.31,2.21,5.11.64,2.19,1.27,4.37,1.91,6.56.38,1.3.74,2.77.07,3.95"/>
      <path class="cls-4" d="M89.36,31.14c.19-2.08-1.59-4.13-3.67-4.25"/>
      <path class="cls-4" d="M87.33,22.71c-1.3-1.75-3.41-2.86-5.59-2.94"/>
      <path class="cls-4" d="M93.06,23.75c-1.75-1.07-2.57-3.44-1.86-5.37"/>
      <path class="cls-4" d="M93.81,30.6c-.35-1.15-.09-2.46.66-3.39"/>
    </g>
    <g id="Layer_7" data-name="Layer 7">
      <path class="cls-5" d="M91.5,39.39c1.89-3.44,7.67-12.84,17.74-14.84,1.98-.39,7.89-1.57,10.41,1.63,2.18,2.76.89,7.6-.92,10.23-4.03,5.85-14.89,6.91-27.22,2.98Z"/>
      <path class="cls-4" d="M98.44,36.32c5.49-2.38,11.49-3.6,17.48-3.55"/>
      <path class="cls-4" d="M106.1,31.85c2.3-1.14,4.74-1.99,7.25-2.51"/>
      <path class="cls-4" d="M106.6,36.28c2.03-.43,4.28.35,5.6,1.96"/>
    </g>
  </g>
</svg>