<?xml version="1.0" encoding="UTF-8"?>
<svg id="watermelon" xmlns="http://www.w3.org/2000/svg" viewBox="0 0 291 129.45">
  <defs>
    <style>
      .cls-1 {
        fill: #231f20;
      }

      .cls-2 {
        fill: #bde0bf;
      }

      .cls-3 {
        fill: #289f48;
      }

      .cls-4 {
        fill: #df1c4e;
      }
    </style>
  </defs>
  <path id="watermelonstroke" class="cls-1" d="M137.43,129.45c-24.87,0-47.8-4.86-68.17-14.44-11.38-5.35-21.82-12.14-31.02-20.18-4.24-3.7-8.18-7.68-11.72-11.82C11.53,65.49,3.11,44.79,1.49,21.51L0,0h291l-6.12,24.62c-11.83,47.58-50.74,85.58-101.55,99.16-6.38,1.71-23.63,5.67-45.9,5.67Z"/>
  <path id="greenpart2" class="cls-3" d="M137.43,125.1c-24.41,0-46.91-4.7-66.87-13.98-11.13-5.17-21.33-11.73-30.32-19.48-4.13-3.56-7.97-7.39-11.42-11.37C14.25,63.43,6.06,43.55,4.49,21.17L3.21,3h283.97l-5.22,20.75c-11.58,45.98-49.67,82.71-99.42,95.85-6.27,1.65-23.2,5.5-45.1,5.5Z"/>
  <path id="greenpart1" class="cls-2" d="M137.43,115.17c-22.79,0-43.73-4.69-62.25-13.95-10.27-5.14-19.69-11.65-27.99-19.35-3.78-3.51-7.3-7.28-10.45-11.2C23.41,54.1,15.92,34.48,14.47,12.35l-.61-9.35h260.83l-2.49,10.63c-10.78,46.08-46.23,82.87-92.51,96.02-5.85,1.66-21.67,5.52-42.26,5.52Z"/>
  <path id="redpart" class="cls-4" d="M24.45,3h237.96c-9.95,42.95-42.51,77.92-85.77,90.34-5.95,1.71-52.62,14.4-96.52-7.79-11.83-5.98-20.28-12.88-25.68-17.94-3.23-3.03-6.46-6.47-9.55-10.34C29.19,37.56,25.33,16.52,24.45,3Z"/>
  <g id="seeds">
    <path class="cls-1" d="M50.27,10.79c-2.87-.76-9.44,8.81-7.37,14.41.23.63.97,2.61,2.79,3.31,1.52.58,3.11,0,3.79-.36,4.7-2.57,3.95-16.52.79-17.36Z"/>
    <path class="cls-1" d="M62.04,32.78c-2.87-.76-9.44,8.81-7.37,14.41.23.63.97,2.61,2.79,3.31,1.52.58,3.11,0,3.79-.36,4.7-2.57,3.95-16.52.79-17.36Z"/>
    <path class="cls-1" d="M77.47,50.12c-2.87-.76-9.44,8.81-7.37,14.41.23.63.97,2.61,2.79,3.31,1.52.58,3.11,0,3.79-.36,4.7-2.57,3.95-16.52.79-17.36Z"/>
    <path class="cls-1" d="M97.17,61.44c-2.87-.76-9.44,8.81-7.37,14.41.23.63.97,2.61,2.79,3.31,1.52.58,3.11,0,3.79-.36,4.7-2.57,3.95-16.52.79-17.36Z"/>
    <path class="cls-1" d="M117.58,70.27c-2.95-.31-7.99,10.14-5.09,15.36.33.59,1.35,2.44,3.27,2.85,1.59.34,3.08-.46,3.69-.93,4.25-3.26,1.39-16.93-1.86-17.27Z"/>
    <path class="cls-1" d="M141.83,75.91c-2.97-.15-7.41,10.57-4.23,15.62.36.57,1.49,2.36,3.42,2.66,1.61.25,3.05-.64,3.63-1.14,4.06-3.49.45-16.98-2.82-17.14Z"/>
    <path class="cls-1" d="M165.93,70.25c-2.97.03-6.78,10.99-3.3,15.84.39.55,1.62,2.27,3.57,2.46,1.62.16,3-.81,3.56-1.35,3.85-3.72-.55-16.98-3.82-16.95Z"/>
    <path class="cls-1" d="M187.76,62.63c-2.91.57-4.63,12.06-.31,16.18.49.47,2.01,1.93,3.96,1.75,1.62-.14,2.8-1.36,3.25-1.99,3.1-4.37-3.69-16.58-6.9-15.95Z"/>
    <path class="cls-1" d="M207.76,50.12c-2.91.57-4.63,12.06-.31,16.18.49.47,2.01,1.93,3.96,1.75,1.62-.14,2.8-1.36,3.25-1.99,3.1-4.37-3.69-16.58-6.9-15.95Z"/>
    <path class="cls-1" d="M225.67,32.78c-2.91.57-4.63,12.06-.31,16.18.49.47,2.01,1.93,3.96,1.75,1.62-.14,2.8-1.36,3.25-1.99,3.1-4.37-3.69-16.58-6.9-15.95Z"/>
    <path class="cls-1" d="M236.28,9.22c-2.91.57-4.63,12.06-.31,16.18.49.47,2.01,1.93,3.96,1.75,1.62-.14,2.8-1.36,3.25-1.99,3.1-4.37-3.69-16.58-6.9-15.95Z"/>
    <path class="cls-1" d="M122.22,50.95c-2.38-.25-6.45,8.19-4.11,12.4.26.48,1.09,1.97,2.64,2.3,1.28.28,2.48-.38,2.98-.75,3.43-2.63,1.12-13.67-1.5-13.95Z"/>
    <path class="cls-1" d="M141.81,55.5c-2.39-.12-5.99,8.54-3.41,12.61.29.46,1.2,1.9,2.76,2.15,1.3.2,2.46-.51,2.93-.92,3.28-2.82.36-13.71-2.28-13.84Z"/>
    <path class="cls-1" d="M161.26,50.94c-2.4.02-5.47,8.87-2.67,12.79.32.44,1.31,1.83,2.88,1.98,1.31.13,2.42-.66,2.87-1.09,3.11-3-.44-13.71-3.09-13.69Z"/>
    <path class="cls-1" d="M65.88,4.88c-2.33-.62-7.67,7.16-5.99,11.7.19.51.79,2.12,2.27,2.69,1.24.47,2.53,0,3.08-.29,3.82-2.09,3.21-13.42.64-14.1Z"/>
    <path class="cls-1" d="M75.43,22.74c-2.33-.62-7.67,7.16-5.99,11.7.19.51.79,2.12,2.27,2.69,1.24.47,2.53,0,3.08-.29,3.82-2.09,3.21-13.42.64-14.1Z"/>
    <path class="cls-1" d="M87.97,36.83c-2.33-.62-7.67,7.16-5.99,11.7.19.51.79,2.12,2.27,2.69,1.24.47,2.53,0,3.08-.29,3.82-2.09,3.21-13.42.64-14.1Z"/>
    <path class="cls-1" d="M103.97,46.03c-2.33-.62-7.67,7.16-5.99,11.7.19.51.79,2.12,2.27,2.69,1.24.47,2.53,0,3.08-.29,3.82-2.09,3.21-13.42.64-14.1Z"/>
    <path class="cls-1" d="M178.99,46.39c-2.24.44-3.55,9.26-.24,12.43.37.36,1.55,1.48,3.04,1.35,1.25-.11,2.15-1.04,2.49-1.53,2.38-3.36-2.83-12.74-5.3-12.25Z"/>
    <path class="cls-1" d="M194.36,36.78c-2.24.44-3.55,9.26-.24,12.43.37.36,1.55,1.48,3.04,1.35,1.25-.11,2.15-1.04,2.49-1.53,2.38-3.36-2.83-12.74-5.3-12.25Z"/>
    <path class="cls-1" d="M208.12,23.45c-2.24.44-3.55,9.26-.24,12.43.37.36,1.55,1.48,3.04,1.35,1.25-.11,2.15-1.04,2.49-1.53,2.38-3.36-2.83-12.74-5.3-12.25Z"/>
    <path class="cls-1" d="M216.27,5.35c-2.24.44-3.55,9.26-.24,12.43.37.36,1.55,1.48,3.04,1.35,1.25-.11,2.15-1.04,2.49-1.53,2.38-3.36-2.83-12.74-5.3-12.25Z"/>
    <path class="cls-1" d="M125.71,33.96c-1.94-.21-5.26,6.68-3.35,10.11.22.39.89,1.6,2.15,1.87,1.05.23,2.02-.31,2.43-.61,2.8-2.14.92-11.14-1.23-11.37Z"/>
    <path class="cls-1" d="M141.67,37.67c-1.95-.1-4.88,6.96-2.78,10.28.24.38.98,1.55,2.25,1.75,1.06.17,2-.42,2.39-.75,2.67-2.3.29-11.17-1.86-11.28Z"/>
    <path class="cls-1" d="M157.53,33.95c-1.95.02-4.46,7.23-2.17,10.43.26.36,1.07,1.49,2.35,1.62,1.07.1,1.98-.54,2.34-.89,2.53-2.45-.36-11.17-2.52-11.15Z"/>
    <path class="cls-1" d="M87.58,10.97c-1.9-.5-6.25,5.83-4.88,9.54.15.42.64,1.73,1.85,2.19,1.01.38,2.06,0,2.51-.24,3.11-1.7,2.62-10.93.52-11.49Z"/>
    <path class="cls-1" d="M97.8,22.45c-1.9-.5-6.25,5.83-4.88,9.54.15.42.64,1.73,1.85,2.19,1.01.38,2.06,0,2.51-.24,3.11-1.7,2.62-10.93.52-11.49Z"/>
    <path class="cls-1" d="M110.84,29.95c-1.9-.5-6.25,5.83-4.88,9.54.15.42.64,1.73,1.85,2.19,1.01.38,2.06,0,2.51-.24,3.11-1.7,2.62-10.93.52-11.49Z"/>
    <path class="cls-1" d="M171.97,30.24c-1.82.36-2.9,7.55-.2,10.13.31.29,1.26,1.21,2.48,1.1,1.02-.09,1.75-.85,2.03-1.24,1.94-2.74-2.31-10.38-4.32-9.99Z"/>
    <path class="cls-1" d="M184.5,22.41c-1.82.36-2.9,7.55-.2,10.13.31.29,1.26,1.21,2.48,1.1,1.02-.09,1.75-.85,2.03-1.24,1.94-2.74-2.31-10.38-4.32-9.99Z"/>
    <path class="cls-1" d="M195.72,11.55c-1.82.36-2.9,7.55-.2,10.13.31.29,1.26,1.21,2.48,1.1,1.02-.09,1.75-.85,2.03-1.24,1.94-2.74-2.31-10.38-4.32-9.99Z"/>
    <path class="cls-1" d="M129.17,19.99c-1.51-.16-4.1,5.2-2.61,7.88.17.3.69,1.25,1.67,1.46.82.18,1.58-.24,1.89-.48,2.18-1.67.71-8.68-.96-8.86Z"/>
    <path class="cls-1" d="M141.62,22.88c-1.52-.08-3.8,5.42-2.17,8.01.18.29.76,1.21,1.75,1.36.82.13,1.56-.33,1.86-.58,2.08-1.79.23-8.71-1.45-8.79Z"/>
    <path class="cls-1" d="M153.97,19.99c-1.52.01-3.48,5.64-1.69,8.13.2.28.83,1.16,1.83,1.26.83.08,1.54-.42,1.83-.69,1.98-1.91-.28-8.71-1.96-8.69Z"/>
    <path class="cls-1" d="M107.42,11.03c-1.48-.39-4.87,4.54-3.8,7.43.12.33.5,1.35,1.44,1.71.78.3,1.6,0,1.95-.19,2.42-1.33,2.04-8.52.41-8.95Z"/>
    <path class="cls-1" d="M117.59,16.87c-1.48-.39-4.87,4.54-3.8,7.43.12.33.5,1.35,1.44,1.71.78.3,1.6,0,1.95-.19,2.42-1.33,2.04-8.52.41-8.95Z"/>
    <path class="cls-1" d="M165.23,17.09c-1.42.28-2.26,5.88-.15,7.9.24.23.98.94,1.93.86.79-.07,1.37-.66,1.58-.97,1.51-2.13-1.8-8.09-3.37-7.78Z"/>
    <path class="cls-1" d="M174.99,10.99c-1.42.28-2.26,5.88-.15,7.9.24.23.98.94,1.93.86.79-.07,1.37-.66,1.58-.97,1.51-2.13-1.8-8.09-3.37-7.78Z"/>
    <path class="cls-1" d="M132.62,8.39c-1.04-.11-2.82,3.58-1.8,5.42.12.21.48.86,1.15,1,.56.12,1.09-.16,1.3-.33,1.5-1.15.49-5.97-.66-6.09Z"/>
    <path class="cls-1" d="M141.18,10.38c-1.05-.05-2.61,3.73-1.49,5.51.13.2.52.83,1.21.94.57.09,1.07-.22,1.28-.4,1.43-1.23.16-5.99-1-6.05Z"/>
    <path class="cls-1" d="M149.68,8.39c-1.05,0-2.39,3.88-1.17,5.59.14.19.57.8,1.26.87.57.06,1.06-.29,1.26-.48,1.36-1.31-.19-5.99-1.35-5.98Z"/>
    <path class="cls-1" d="M124.65,6.24c-1.02-.27-3.35,3.13-2.62,5.11.08.22.34.93.99,1.18.54.21,1.1,0,1.34-.13,1.67-.91,1.4-5.86.28-6.16Z"/>
    <path class="cls-1" d="M157.42,6.4c-.98.19-1.55,4.05-.1,5.43.16.16.68.65,1.33.59.54-.05.94-.45,1.09-.67,1.04-1.47-1.24-5.57-2.32-5.35Z"/>
  </g>
</svg>